# xmcd
#
# Track frame offsets:
#	150
#	13761
#	30538
#	48309
#	63748
#	79078
#	97160
#	112167
#	127288
#	149807
#	170163
#	179290
#	202182
#	214492
#	229424
#	244902
#
# Disc length: 3508 seconds
#
# Revision: 1
# Processed by: cddbd v1.5.2PL0 Copyright (c) Steve Scherf et al.
# Submitted via: audiograbber 1.83.01
#
DISCID=0a0db210
DTITLE=David Ingles - Scripture Classics
DYEAR=1979
DGENRE=Christian Faith
TTITLE0=Oasis Of Love
TTITLE1=Let It Stand
TTITLE2=Heavenly Flu
TTITLE3=Now I Have Everythying
TTITLE4=It Was Me
TTITLE5=You Hold A Miracle
TTITLE6=I Am Healed
TTITLE7=Our King Of Kings
TTITLE8=Living In The Presence Of Jesus
TTITLE9=You Are Free
TTITLE10=Keep The Switch Of Faith Turned On
TTITLE11=Lord I Believe
TTITLE12=The Seed Of Abraham
TTITLE13=I Don't Sing Those Songs Anymore
TTITLE14=I'm A New Creation
TTITLE15=In Him
EXTD=These songs will build faith in you to receive from God anything you need 
EXTD=in this life and the next.
EXTT0=
EXTT1=
EXTT2=
EXTT3=
EXTT4=
EXTT5=
EXTT6=
EXTT7=
EXTT8=
EXTT9=
EXTT10=
EXTT11=
EXTT12=
EXTT13=
EXTT14=
EXTT15=
PLAYORDER=
